<svg viewBox="0 0 14 12" fill="none" xmlns="http://www.w3.org/2000/svg">
<path d="M1.52198 5.3076C1.22455 5.01932 0.749731 5.02674 0.461449 5.32417C0.173168 5.62161 0.180586 6.09642 0.47802 6.3847L1.52198 5.3076ZM5.28571 10L4.76373 10.5386L5.33626 11.0935L5.85516 10.4881L5.28571 10ZM13.5694 1.48809C13.839 1.1736 13.8026 0.700125 13.4881 0.430559C13.1736 0.160992 12.7001 0.197413 12.4306 0.511907L13.5694 1.48809ZM0.47802 6.3847L4.76373 10.5386L5.80769 9.46145L1.52198 5.3076L0.47802 6.3847ZM5.85516 10.4881L13.5694 1.48809L12.4306 0.511907L4.71627 9.51191L5.85516 10.4881Z" fill="white"/>
</svg>
