<svg xmlns="http://www.w3.org/2000/svg" xmlns:xlink="http://www.w3.org/1999/xlink"><defs><clipPath id="clip0"><rect/></clipPath></defs><symbol id="i-arrow-sm"><path d="M9.354 4.354a.5.5 0 000-.708L6.172.464a.5.5 0 10-.708.708L8.293 4 5.464 6.828a.5.5 0 10.708.708l3.182-3.182zM0 4.5h9v-1H0v1z"/></symbol><symbol id="i-arrow"><path d="M.646 3.646a.5.5 0 000 .708l3.182 3.182a.5.5 0 10.708-.708L1.707 4l2.829-2.828a.5.5 0 00-.708-.708L.646 3.646zm75.17-.146H1v1h74.816v-1z"/></symbol><symbol id="i-chevron" viewBox="0 0 24 24"><path d="M15 18l-6-6 6-6"/></symbol><symbol id="i-clip" viewBox="0 0 20 20"><path d="M17.867 9.208l-7.659 7.659a5.003 5.003 0 11-7.075-7.075l7.659-7.659a3.335 3.335 0 114.716 4.717l-7.666 7.658a1.667 1.667 0 11-2.359-2.358l7.075-7.067"/></symbol><symbol id="i-close" viewBox="0 0 22 22"><path d="M1 1l10 10m10 10L11 11m0 0L21 1 1 21"/></symbol><symbol id="i-daw" viewBox="0 0 14 12"><path d="M1.522 5.308A.75.75 0 00.478 6.385l1.044-1.077zM5.286 10l-.522.539.572.555.52-.606-.57-.488zm8.283-8.512a.75.75 0 10-1.138-.976l1.138.976zM.478 6.385l4.286 4.154L5.808 9.46 1.522 5.308.478 6.385zm5.377 4.103l7.714-9-1.138-.976-7.715 9 1.14.976z"/></symbol><symbol id="i-file" viewBox="0 0 20 20"><g clip-path="url(#clip0)"><path d="M10.833 1.667H5a1.667 1.667 0 00-1.667 1.666v13.334A1.667 1.667 0 005 18.333h10a1.667 1.667 0 001.667-1.666V7.5l-5.834-5.833z"/><path d="M10.833.667V6.5h5.834"/></g></symbol><symbol id="i-plus" viewBox="0 0 14 14"><path d="M7 2.917v8.166M2.918 7h8.167" stroke-width="1.4" stroke-linecap="round" stroke-linejoin="round"/></symbol></svg>