<svg xmlns="http://www.w3.org/2000/svg" xmlns:xlink="http://www.w3.org/1999/xlink"><symbol id="i-arrow-sm"><path d="M9.354 4.354a.5.5 0 000-.708L6.172.464a.5.5 0 10-.708.708L8.293 4 5.464 6.828a.5.5 0 10.708.708l3.182-3.182zM0 4.5h9v-1H0v1z"/></symbol><symbol id="i-arrow"><path d="M.646 3.646a.5.5 0 000 .708l3.182 3.182a.5.5 0 10.708-.708L1.707 4l2.829-2.828a.5.5 0 00-.708-.708L.646 3.646zm75.17-.146H1v1h74.816v-1z"/></symbol><symbol id="i-chevron" viewBox="0 0 24 24"><path d="M15 18l-6-6 6-6"/></symbol><symbol id="i-close" viewBox="0 0 22 22"><path d="M1 1l10 10m10 10L11 11m0 0L21 1 1 21"/></symbol><symbol id="i-plus" viewBox="0 0 14 14"><path d="M7 2.917v8.166M2.918 7h8.167" stroke-width="1.4" stroke-linecap="round" stroke-linejoin="round"/></symbol></svg>